<svg xmlns="http://www.w3.org/2000/svg" fill="none" viewBox="0 0 890 500" height="500" width="890">
<rect fill="white" height="500" width="890"></rect>
<rect fill="#BEBEBE" rx="4" height="8" width="50" y="38" x="55"></rect>
<path fill="#171717" d="M64.432 72.204C65.992 72.204 67.144 71.88 67.888 71.232C68.632 70.56 69.004 69.708 69.004 68.676V68.424C69.004 67.272 68.644 66.396 67.924 65.796C67.204 65.172 66.232 64.86 65.008 64.86C63.808 64.86 62.788 65.136 61.948 65.688C61.108 66.216 60.4 66.96 59.824 67.92L57.124 65.58C57.508 65.028 57.94 64.5 58.42 63.996C58.9 63.492 59.464 63.06 60.112 62.7C60.76 62.316 61.492 62.016 62.308 61.8C63.124 61.56 64.06 61.44 65.116 61.44C66.292 61.44 67.384 61.584 68.392 61.872C69.4 62.16 70.264 62.592 70.984 63.168C71.704 63.72 72.268 64.404 72.676 65.22C73.084 66.012 73.288 66.912 73.288 67.92C73.288 68.712 73.156 69.432 72.892 70.08C72.652 70.728 72.304 71.304 71.848 71.808C71.416 72.288 70.9 72.684 70.3 72.996C69.724 73.308 69.112 73.536 68.464 73.68V73.86C69.184 74.004 69.856 74.244 70.48 74.58C71.128 74.892 71.692 75.312 72.172 75.84C72.652 76.344 73.024 76.956 73.288 77.676C73.576 78.372 73.72 79.176 73.72 80.088C73.72 81.192 73.504 82.2 73.072 83.112C72.64 84 72.028 84.768 71.236 85.416C70.468 86.064 69.532 86.568 68.428 86.928C67.324 87.264 66.1 87.432 64.756 87.432C63.58 87.432 62.548 87.3 61.66 87.036C60.772 86.796 59.98 86.472 59.284 86.064C58.612 85.632 58.012 85.152 57.484 84.624C56.98 84.072 56.536 83.508 56.152 82.932L59.14 80.592C59.452 81.096 59.776 81.564 60.112 81.996C60.472 82.404 60.868 82.764 61.3 83.076C61.756 83.364 62.26 83.592 62.812 83.76C63.388 83.928 64.036 84.012 64.756 84.012C66.292 84.012 67.468 83.652 68.284 82.932C69.1 82.188 69.508 81.168 69.508 79.872V79.62C69.508 78.324 69.076 77.34 68.212 76.668C67.348 75.996 66.124 75.66 64.54 75.66H61.876V72.204H64.432ZM81.8059 87.432C80.9179 87.432 80.2579 87.204 79.8259 86.748C79.3939 86.268 79.1779 85.68 79.1779 84.984V84.444C79.1779 83.748 79.3939 83.172 79.8259 82.716C80.2579 82.236 80.9179 81.996 81.8059 81.996C82.6939 81.996 83.3539 82.236 83.7859 82.716C84.2179 83.172 84.4339 83.748 84.4339 84.444V84.984C84.4339 85.68 84.2179 86.268 83.7859 86.748C83.3539 87.204 82.6939 87.432 81.8059 87.432ZM97.8273 87.432C96.3633 87.432 95.0673 87.252 93.9393 86.892C92.8353 86.508 91.8993 85.992 91.1313 85.344C90.3873 84.696 89.8113 83.928 89.4033 83.04C89.0193 82.152 88.8273 81.192 88.8273 80.16C88.8273 78.48 89.2833 77.136 90.1953 76.128C91.1313 75.096 92.3553 74.376 93.8673 73.968V73.68C92.5713 73.224 91.5273 72.504 90.7353 71.52C89.9673 70.536 89.5833 69.324 89.5833 67.884C89.5833 66.924 89.7633 66.048 90.1233 65.256C90.5073 64.464 91.0473 63.792 91.7433 63.24C92.4393 62.664 93.3033 62.22 94.3353 61.908C95.3673 61.596 96.5313 61.44 97.8273 61.44C99.1233 61.44 100.287 61.596 101.319 61.908C102.351 62.22 103.215 62.664 103.911 63.24C104.607 63.792 105.135 64.464 105.495 65.256C105.879 66.048 106.071 66.924 106.071 67.884C106.071 69.324 105.675 70.536 104.883 71.52C104.115 72.504 103.083 73.224 101.787 73.68V73.968C103.299 74.376 104.511 75.096 105.423 76.128C106.359 77.136 106.827 78.48 106.827 80.16C106.827 81.192 106.623 82.152 106.215 83.04C105.831 83.928 105.255 84.696 104.487 85.344C103.743 85.992 102.807 86.508 101.679 86.892C100.575 87.252 99.2913 87.432 97.8273 87.432ZM97.8273 84.156C99.3393 84.156 100.503 83.808 101.319 83.112C102.159 82.416 102.579 81.444 102.579 80.196V79.476C102.579 78.228 102.159 77.256 101.319 76.56C100.503 75.864 99.3393 75.516 97.8273 75.516C96.3153 75.516 95.1393 75.864 94.2993 76.56C93.4833 77.256 93.0753 78.228 93.0753 79.476V80.196C93.0753 81.444 93.4833 82.416 94.2993 83.112C95.1393 83.808 96.3153 84.156 97.8273 84.156ZM97.8273 72.384C99.2193 72.384 100.275 72.084 100.995 71.484C101.739 70.884 102.111 70.008 102.111 68.856V68.244C102.111 67.092 101.739 66.216 100.995 65.616C100.275 65.016 99.2193 64.716 97.8273 64.716C96.4353 64.716 95.3673 65.016 94.6233 65.616C93.9033 66.216 93.5433 67.092 93.5433 68.244V68.856C93.5433 70.008 93.9033 70.884 94.6233 71.484C95.3673 72.084 96.4353 72.384 97.8273 72.384ZM128.089 87H111.025V83.112L119.053 75.948C120.325 74.796 121.297 73.704 121.969 72.672C122.665 71.616 123.013 70.512 123.013 69.36V68.892C123.013 67.668 122.641 66.708 121.897 66.012C121.177 65.316 120.193 64.968 118.945 64.968C118.249 64.968 117.637 65.076 117.109 65.292C116.605 65.484 116.161 65.76 115.777 66.12C115.393 66.48 115.069 66.9 114.805 67.38C114.565 67.86 114.373 68.376 114.229 68.928L110.665 67.56C110.929 66.768 111.289 66.012 111.745 65.292C112.201 64.548 112.777 63.888 113.473 63.312C114.169 62.736 114.985 62.28 115.921 61.944C116.881 61.608 117.997 61.44 119.269 61.44C120.541 61.44 121.681 61.632 122.689 62.016C123.697 62.376 124.537 62.892 125.209 63.564C125.905 64.212 126.433 64.992 126.793 65.904C127.153 66.816 127.333 67.812 127.333 68.892C127.333 69.9 127.177 70.836 126.865 71.7C126.553 72.564 126.121 73.38 125.569 74.148C125.017 74.916 124.369 75.648 123.625 76.344C122.905 77.04 122.137 77.748 121.321 78.468L115.417 83.544H128.089V87ZM133.007 60.36H136.931V76.704H137.111L139.703 73.356L144.203 68.28H148.775L142.223 75.516L149.567 87H144.887L139.523 78.072L136.931 80.88V87H133.007V60.36Z"></path>
<rect fill="#1E61F0" transform="matrix(-1 0 0 1 50 36)" rx="5" height="10" width="10"></rect>
<rect fill="#BEBEBE" rx="4" height="8" width="50" y="38" x="189"></rect>
<path fill="#171717" d="M198.432 72.204C199.992 72.204 201.144 71.88 201.888 71.232C202.632 70.56 203.004 69.708 203.004 68.676V68.424C203.004 67.272 202.644 66.396 201.924 65.796C201.204 65.172 200.232 64.86 199.008 64.86C197.808 64.86 196.788 65.136 195.948 65.688C195.108 66.216 194.4 66.96 193.824 67.92L191.124 65.58C191.508 65.028 191.94 64.5 192.42 63.996C192.9 63.492 193.464 63.06 194.112 62.7C194.76 62.316 195.492 62.016 196.308 61.8C197.124 61.56 198.06 61.44 199.116 61.44C200.292 61.44 201.384 61.584 202.392 61.872C203.4 62.16 204.264 62.592 204.984 63.168C205.704 63.72 206.268 64.404 206.676 65.22C207.084 66.012 207.288 66.912 207.288 67.92C207.288 68.712 207.156 69.432 206.892 70.08C206.652 70.728 206.304 71.304 205.848 71.808C205.416 72.288 204.9 72.684 204.3 72.996C203.724 73.308 203.112 73.536 202.464 73.68V73.86C203.184 74.004 203.856 74.244 204.48 74.58C205.128 74.892 205.692 75.312 206.172 75.84C206.652 76.344 207.024 76.956 207.288 77.676C207.576 78.372 207.72 79.176 207.72 80.088C207.72 81.192 207.504 82.2 207.072 83.112C206.64 84 206.028 84.768 205.236 85.416C204.468 86.064 203.532 86.568 202.428 86.928C201.324 87.264 200.1 87.432 198.756 87.432C197.58 87.432 196.548 87.3 195.66 87.036C194.772 86.796 193.98 86.472 193.284 86.064C192.612 85.632 192.012 85.152 191.484 84.624C190.98 84.072 190.536 83.508 190.152 82.932L193.14 80.592C193.452 81.096 193.776 81.564 194.112 81.996C194.472 82.404 194.868 82.764 195.3 83.076C195.756 83.364 196.26 83.592 196.812 83.76C197.388 83.928 198.036 84.012 198.756 84.012C200.292 84.012 201.468 83.652 202.284 82.932C203.1 82.188 203.508 81.168 203.508 79.872V79.62C203.508 78.324 203.076 77.34 202.212 76.668C201.348 75.996 200.124 75.66 198.54 75.66H195.876V72.204H198.432ZM215.806 87.432C214.918 87.432 214.258 87.204 213.826 86.748C213.394 86.268 213.178 85.68 213.178 84.984V84.444C213.178 83.748 213.394 83.172 213.826 82.716C214.258 82.236 214.918 81.996 215.806 81.996C216.694 81.996 217.354 82.236 217.786 82.716C218.218 83.172 218.434 83.748 218.434 84.444V84.984C218.434 85.68 218.218 86.268 217.786 86.748C217.354 87.204 216.694 87.432 215.806 87.432ZM233.951 87V82.104H222.287V78.612L232.475 61.872H237.803V78.9H241.223V82.104H237.803V87H233.951ZM225.743 78.9H233.951V65.58H233.699L225.743 78.9ZM245.781 87V83.616H252.837V64.824H252.549L246.717 71.052L244.233 68.82L250.641 61.872H256.833V83.616H262.953V87H245.781ZM267.007 60.36H270.931V76.704H271.111L273.703 73.356L278.203 68.28H282.775L276.223 75.516L283.567 87H278.887L273.523 78.072L270.931 80.88V87H267.007V60.36Z"></path>
<rect fill="#91D9E3" transform="matrix(-1 0 0 1 184 36)" rx="5" height="10" width="10"></rect>
<path stroke="#D9D9D9" d="M598 38C598 36.8954 598.895 36 600 36H634V56H600C598.895 56 598 55.1046 598 54V38Z"></path>
<rect stroke="#D9D9D9" height="20" width="36" y="36" x="634"></rect>
<rect stroke="#D9D9D9" height="20" width="36" y="36" x="670"></rect>
<rect stroke="#D9D9D9" height="20" width="36" y="36" x="706"></rect>
<path stroke="#0D1F91" fill="#C1E0FE" d="M742 36H848C849.105 36 850 36.8954 850 38V54C850 55.1046 849.105 56 848 56H742V36Z"></path>
<rect fill="#0D1F91" rx="2" height="4" width="84" y="44" x="755"></rect>
<rect fill="#8C8C8C" rx="2" height="4" width="16" y="44" x="716"></rect>
<rect fill="#8C8C8C" rx="2" height="4" width="16" y="44" x="680"></rect>
<rect fill="#8C8C8C" rx="2" height="4" width="16" y="44" x="644"></rect>
<rect fill="#8C8C8C" rx="2" height="4" width="16" y="44" x="608"></rect>
<path stroke="#D9D9D9" d="M40 125H850"></path>
<path stroke="#D9D9D9" d="M40 202H850"></path>
<path stroke="#D9D9D9" d="M40 279H850"></path>
<path stroke="#D9D9D9" d="M40 356H850"></path>
<path stroke="#D9D9D9" d="M40 433H850"></path>
<path stroke-linecap="round" stroke-width="4" stroke="#1E61F0" d="M58.6074 318.618L85.6498 320.792C85.7821 320.802 85.913 320.826 86.0406 320.863L111.626 328.196C112.23 328.369 112.881 328.248 113.382 327.87L134.33 312.058C135.157 311.433 136.324 311.544 137.019 312.313L160.556 338.353C161.132 338.99 162.049 339.189 162.836 338.847L186.361 328.636C186.613 328.527 186.884 328.471 187.158 328.471H213.706C213.89 328.471 214.074 328.496 214.251 328.547L235.663 334.608C236.557 334.861 237.508 334.465 237.958 333.652L263.86 286.884C264.212 286.248 264.882 285.853 265.609 285.853H291.812C292.64 285.853 293.381 285.344 293.679 284.572L316.023 226.519C316.254 225.918 316.76 225.466 317.383 225.303L345.141 218.032C345.475 217.945 345.78 217.773 346.028 217.533L363.998 200.086C364.507 199.592 365.24 199.404 365.924 199.593L391.885 206.763C392.325 206.885 392.794 206.852 393.214 206.67L417.29 196.22C417.617 196.079 417.976 196.027 418.33 196.07L443.476 199.159C444.133 199.24 444.707 199.64 445.01 200.228L472.485 253.54C472.675 253.908 472.973 254.207 473.339 254.398L497.369 266.913C497.777 267.126 498.099 267.473 498.281 267.895L522.702 324.526C523.018 325.259 523.74 325.734 524.539 325.734H545.929C546.561 325.734 547.156 326.033 547.533 326.539L570.989 358.026C571.638 358.897 572.864 359.091 573.751 358.462L599.358 340.274C599.711 340.023 599.974 339.665 600.105 339.252L622.804 268.195C622.995 267.595 623.458 267.12 624.053 266.914L650.033 257.89C650.243 257.817 650.438 257.71 650.612 257.574L673.021 239.984C673.651 239.49 674.515 239.419 675.217 239.804L700.099 253.446C700.823 253.843 701.717 253.754 702.349 253.223L723.615 235.327C724.735 234.385 726.455 234.925 726.835 236.339L748.827 318.232C749.062 319.105 749.854 319.713 750.759 319.713H774.79C775.223 319.713 775.645 319.572 775.991 319.312L801.156 300.408C801.503 300.148 801.924 300.007 802.357 300.007H826.409"></path>
<path stroke-linecap="round" stroke-width="4" stroke="#91D9E3" d="M59.6948 132.312L85.4679 167.296C85.7157 167.633 86.0626 167.883 86.46 168.012L111.519 176.157C112.182 176.372 112.909 176.227 113.438 175.774L134.218 157.988C135.078 157.252 136.377 157.375 137.082 158.26L160.516 187.659C161.102 188.393 162.12 188.621 162.963 188.206L185.358 177.185C186.174 176.783 187.158 176.982 187.753 177.669L213.617 207.525C213.857 207.802 214.169 208.008 214.518 208.12L236.739 215.252C237.035 215.347 237.305 215.51 237.528 215.728L263.848 241.52C264.221 241.887 264.724 242.092 265.247 242.092H292.823C293.063 242.092 293.3 242.135 293.525 242.219L315.78 250.553C316.177 250.701 316.517 250.972 316.75 251.327L344.233 293.112C344.951 294.203 346.506 294.324 347.384 293.357L363.348 275.783C364.139 274.913 365.506 274.909 366.301 275.775L391.553 303.264C392.154 303.918 393.113 304.097 393.909 303.706L417.323 292.182C417.629 292.032 417.891 291.805 418.085 291.524L444.247 253.639C444.431 253.373 444.675 253.156 444.96 253.006L471.788 238.859C472.402 238.535 473.141 238.553 473.738 238.906L497.859 253.152C497.953 253.207 498.042 253.27 498.125 253.34L522.197 273.48C522.818 274 523.691 274.094 524.408 273.718L545.255 262.804C546.196 262.311 547.359 262.64 547.902 263.554L570.979 302.385C571.6 303.431 573.005 303.684 573.952 302.92L599.583 282.279C599.794 282.109 599.968 281.898 600.095 281.659L623.108 238.338L650.184 189.218C650.293 189.019 650.436 188.84 650.606 188.689L673.208 168.571C673.736 168.102 674.472 167.945 675.145 168.16L700.17 176.143C700.867 176.365 701.63 176.189 702.159 175.684L725.302 153.602C725.754 153.17 726.382 152.975 726.999 153.074L749.068 156.616C749.173 156.632 749.279 156.641 749.385 156.641H774.506C775.108 156.641 775.678 156.912 776.058 157.379L801.09 188.179C801.469 188.646 802.04 188.917 802.642 188.917H826.409"></path>
<rect fill="#DCDCDC" rx="4" height="8" width="22.0056" y="452" x="40"></rect>
<rect fill="#DCDCDC" rx="4" height="8" width="22.0056" y="452" x="100.006"></rect>
<rect fill="#DCDCDC" rx="4" height="8" width="22.0056" y="452" x="160.011"></rect>
<rect fill="#DCDCDC" rx="4" height="8" width="22.0056" y="452" x="220.017"></rect>
<rect fill="#DCDCDC" rx="4" height="8" width="22.0056" y="452" x="280.022"></rect>
<rect fill="#DCDCDC" rx="4" height="8" width="22.0056" y="452" x="340.028"></rect>
<rect fill="#DCDCDC" rx="4" height="8" width="22.0056" y="452" x="400.033"></rect>
<rect fill="#DCDCDC" rx="4" height="8" width="22.0056" y="452" x="460.039"></rect>
<rect fill="#DCDCDC" rx="4" height="8" width="22.0056" y="452" x="520.045"></rect>
<rect fill="#DCDCDC" rx="4" height="8" width="22.0056" y="452" x="580.05"></rect>
<rect fill="#DCDCDC" rx="4" height="8" width="22.0056" y="452" x="640.056"></rect>
<rect fill="#DCDCDC" rx="4" height="8" width="22.0056" y="452" x="700.062"></rect>
<rect fill="#DCDCDC" rx="4" height="8" width="22.0056" y="452" x="760.067"></rect>
<rect fill="#DCDCDC" rx="4" height="8" width="22.0056" y="452" x="820.073"></rect>
</svg>
